<svg id="layer" xmlns="http://www.w3.org/2000/svg" viewBox="0 0 413.17 79.29"><defs><style>.cls-1{fill:#f96e90;}.cls-2{fill:#46d0d3;}.cls-3{fill:#dfea49;}.cls-4{fill:#ef966f;}.cls-5{fill:#333;}.cls-6{fill:#eaeaea;}.cls-7{fill:#ef5750;}</style></defs><title>coderdojo-ashiya_logo_yoko</title><g id="group1"><path id="moji_1" data-name="moji 1" class="cls-1" d="M360,69.64q5.94,0,9.25,2.85A9.31,9.31,0,0,1,372.55,80,10.85,10.85,0,0,1,370,87.18a11.85,11.85,0,0,1-6.81,3.88,2.12,2.12,0,0,1-1.66-.34,2.41,2.41,0,0,1-1-1.45l-.38-1.52a1.88,1.88,0,0,1,.21-1.52,2.33,2.33,0,0,1,1.28-1,7,7,0,0,0,3.23-2.09A4.83,4.83,0,0,0,366.08,80a3.69,3.69,0,0,0-.84-2.51c-.12-.13-.24-.11-.34.07a22.91,22.91,0,0,1-7,9.27,15.38,15.38,0,0,1-9.34,3,8.15,8.15,0,0,1-5.83-2,7.27,7.27,0,0,1-2.16-5.56,9,9,0,0,1,2.18-5.71,16.55,16.55,0,0,1,6-4.53.47.47,0,0,0,.3-.5c0-1.52-.08-2.67-.08-3.46a.29.29,0,0,0-.26-.34.11.11,0,0,0-.08,0c-1.82,0-3.18.07-4.07.07a2,2,0,0,1-1.5-.64,2.08,2.08,0,0,1-.63-1.53V64a2.2,2.2,0,0,1,2.17-2.16c.89,0,2.22,0,4-.08a.27.27,0,0,0,.31-.22V60a2.21,2.21,0,0,1,2.17-2.17h2.13a2.08,2.08,0,0,1,1.52.63,2,2,0,0,1,.65,1.5v1.26c0,.22.1.34.3.34q5.25-.2,12.1-.72a2,2,0,0,1,1.52.55,2.13,2.13,0,0,1,.73,1.46l.11,1.56a2.08,2.08,0,0,1-.57,1.58,2.14,2.14,0,0,1-1.48.74c-4.67.36-8.76.6-12.3.73a.3.3,0,0,0-.34.26v2c0,.24.12.32.34.27A27.94,27.94,0,0,1,360,69.64ZM349.18,83.71a.26.26,0,0,0,.31-.22v-.08c-.05-1-.1-2.5-.15-4.53,0-.2-.1-.24-.31-.11-1.31,1-2,2-2,3,0,1.22.69,1.86,2.11,1.9Zm9.4-7.87c.06-.18,0-.27-.15-.27-.8.07-1.6.19-2.4.34a.35.35,0,0,0-.3.35c.06,1.62.09,2.85.11,3.69a.13.13,0,0,0,.06.11.11.11,0,0,0,.13,0,22,22,0,0,0,2.52-4.22Z" transform="translate(-37.37 -11.94)"/><path id="moji_2" data-name="moji 2" class="cls-1" d="M408.4,75.65a2.14,2.14,0,0,1,1.21,2.77l0,.08q-2.77,6.57-6.66,9.51A14.48,14.48,0,0,1,393.81,91q-6.19,0-9-3T382,78c0-.77.07-3.83.19-9.21.11-3.38.17-5.91.19-7.61A2.14,2.14,0,0,1,384.5,59h3.14a2.1,2.1,0,0,1,1.53.63,2,2,0,0,1,.64,1.5q0,2.51-.19,7.38c-.12,5.38-.19,8.56-.19,9.51,0,2.32.35,3.93,1.05,4.87a3.87,3.87,0,0,0,3.33,1.41,7.26,7.26,0,0,0,4.89-1.9A20.06,20.06,0,0,0,403,75.78a2.25,2.25,0,0,1,1.19-1.14,2.08,2.08,0,0,1,1.66,0Z" transform="translate(-37.37 -11.94)"/><path id="moji_3" data-name="moji 3" class="cls-1" d="M440.25,62.6a10.17,10.17,0,0,1,7.51,2.72,9.85,9.85,0,0,1,2.76,7.36,9.79,9.79,0,0,1-2.76,7.4,10.29,10.29,0,0,1-7.51,2.68,22.38,22.38,0,0,1-4-.45,2,2,0,0,1-1.41-1,2.23,2.23,0,0,1-.3-1.69l.38-1.82a2.33,2.33,0,0,1,.89-1.39,2.14,2.14,0,0,1,1.58-.4c1.22.15,1.91.23,2.1.23q3.79,0,3.8-3.62c0-2.16-1.12-3.23-3.38-3.23-.2,0-.28.1-.23.3s.12.45.21.82l.21.82a2,2,0,0,1-.23,1.61,2.08,2.08,0,0,1-1.33,1l-2.29.61A2.21,2.21,0,0,1,433.59,73c0-.2-.12-.49-.23-.87s-.17-.68-.23-.88a.3.3,0,0,0-.45-.23c-.26.11-.73.22-1.35.44l-1.47.51a.36.36,0,0,0-.19.38q2.25,7.55,4.34,15.49a2.05,2.05,0,0,1-.23,1.62,2.09,2.09,0,0,1-1.33,1l-2.67.64a2,2,0,0,1-1.61-.23,2.07,2.07,0,0,1-1-1.33q-1.52-6-4.11-15c-.05-.18-.17-.23-.38-.19l-2,.65-1.73.57a2.18,2.18,0,0,1-2.74-1.37l-.8-2.36a2.14,2.14,0,0,1,.13-1.63,2,2,0,0,1,1.28-1.07L420.73,68a.28.28,0,0,0,.25-.3s0-.05,0-.08c-.61-1.9-1.07-3.36-1.37-4.3a2,2,0,0,1,.15-1.62,2.13,2.13,0,0,1,1.29-1l2.48-.69a2.16,2.16,0,0,1,1.67.15,2.12,2.12,0,0,1,1.07,1.26l1.29,4.15c0,.18.18.23.46.15s.86-.27,1.52-.5,1.13-.38,1.41-.45.28-.19.22-.42c-.35-1.11-.6-1.9-.76-2.51a2,2,0,0,1,.17-1.62,2.23,2.23,0,0,1,1.32-1l2.47-.68a2,2,0,0,1,1.64.17A2,2,0,0,1,437,59.93l.34,1.2c.19.6.31,1.06.39,1.39s.2.28.45.23A13.77,13.77,0,0,1,440.25,62.6Z" transform="translate(-37.37 -11.94)"/><g id="coderdojo"><path class="cls-2" d="M165.4,37.3a17.24,17.24,0,0,1-15.93,10.75c-10.27,0-17.36-6.89-17.36-17.12,0-9.61,6.94-17.27,17.5-17.27,8.28,0,13.41,4.71,15.51,10.13.24.58,0,.72-.24.81L155.61,28c-.29.1-.34-.09-.43-.29-1-1.9-2.57-3.13-5.62-3.13-4.09,0-6.32,2.61-6.32,6.42s2.57,6.27,6.47,6.27a5.73,5.73,0,0,0,5.42-3.09c.14-.33.19-.42.57-.33L165,36.68C165.5,36.75,165.55,37,165.4,37.3Z" transform="translate(-37.37 -11.94)"/><path class="cls-3" d="M193.75,34.92c0,7.66-5.28,13.08-13.08,13.08s-13.46-5.32-13.46-13.08,5.47-13,13.41-13S193.75,27.24,193.75,34.92Zm-9.7,0a3.46,3.46,0,0,0-3.2-3.7h-.46a3.52,3.52,0,0,0-3.8,3.22,2.68,2.68,0,0,0,0,.49c0,2.76,1.52,3.86,3.81,3.86S184,37.45,184,34.92Z" transform="translate(-37.37 -11.94)"/><path class="cls-2" d="M223.33,46.34c0,.57,0,.62-.33.62h-9.13c-.33,0-.43,0-.43-.62V44.91c-1.62,2.24-4.23,2.71-6.32,2.71-7,0-11-4.85-11-12.74,0-7.61,4.56-12.61,11-12.61a9.74,9.74,0,0,1,6,2.1V14.28c0-.52.05-.62.38-.62H223c.34,0,.38,0,.38.67Zm-10-11.27a3.67,3.67,0,0,0-3.52-3.81h-.19a3.59,3.59,0,0,0-3.76,3.43,2.41,2.41,0,0,0,0,.38c0,2.61,1.47,3.85,3.76,3.85a3.55,3.55,0,0,0,3.72-3.35C213.36,35.4,213.36,35.23,213.35,35.07Z" transform="translate(-37.37 -11.94)"/><path class="cls-2" d="M252.16,33.26a21.81,21.81,0,0,1-.19,3.52c-.05.47-.24.57-1,.57H236.7c.14,1.33,1.43,2.62,3.66,2.62a7.21,7.21,0,0,0,4-1c.19-.19.38-.1.62.19,1,1.38,2.23,3.47,3.61,5.71.29.47.19.76-.29,1.09a13.5,13.5,0,0,1-7.84,2.14c-7.8,0-13-5-13-13.17,0-7.76,5.24-12.94,13.13-12.94C247.12,21.94,252.16,26.41,252.16,33.26Zm-8.37-.62c-.15-1.52-1.43-2.66-3.67-2.66a3.23,3.23,0,0,0-3.47,2.66Z" transform="translate(-37.37 -11.94)"/><path class="cls-2" d="M278.41,27.93c-1,1.14-4.85,5-5.47,5.66-.14.15-.05.19-1,.19,0-2.19-.95-3.28-2.76-3.28a3.74,3.74,0,0,0-2.94,1.81V46.39c0,.42-.1.52-.38.52h-9.71c-.33,0-.38,0-.38-.67V23.43c0-.52,0-.57.33-.57h9.52c.33,0,.43.05.43.57v2.62a7,7,0,0,1,5.94-4C275.7,22.08,278.18,24.27,278.41,27.93Z" transform="translate(-37.37 -11.94)"/><path class="cls-2" d="M312.13,30.79c0,10.89-5.66,16.17-17.26,16.17H282.12c-.43,0-.47,0-.47-.43V15.14c0-.38,0-.48.47-.48h13.94C307,14.66,312.13,20.32,312.13,30.79Zm-11.41-.15c0-5.18-2.57-7-6-7h-2.32V38h2.19C297.86,38,300.72,36.21,300.72,30.64Z" transform="translate(-37.37 -11.94)"/><path class="cls-4" d="M341.29,34.92C341.29,42.58,336,48,328.21,48s-13.46-5.32-13.46-13.08,5.47-13,13.41-13S341.29,27.24,341.29,34.92Zm-9.7,0a3.47,3.47,0,0,0-3.2-3.7h-.47a3.52,3.52,0,0,0-3.79,3.22,2.68,2.68,0,0,0,0,.49c0,2.76,1.52,3.86,3.8,3.86s3.67-1.33,3.67-3.86Z" transform="translate(-37.37 -11.94)"/><path class="cls-2" d="M356.56,44.77c0,6.42-2.57,10-9.56,10a17.29,17.29,0,0,1-5.33-1c-.29,0-.48-.28-.43-.71,0-.67.52-5.61.52-6.18s.34-.72,1-.57c2.28.62,3.28,0,3.28-2.57V23.43c0-.23,0-.57.33-.57h9.8c.33,0,.43.05.43.57Zm0-24.07c0,.43-.1.53-.38.53h-9.8c-.33,0-.38-.34-.38-.62V14.28c0-.28,0-.62.33-.62h9.8c.33,0,.43,0,.43.62Z" transform="translate(-37.37 -11.94)"/><path class="cls-2" d="M386.63,34.92c0,7.66-5.28,13.08-13.08,13.08s-13.46-5.32-13.46-13.08,5.47-13,13.41-13S386.63,27.24,386.63,34.92Zm-9.71,0a3.46,3.46,0,0,0-3.2-3.7h-.46a3.52,3.52,0,0,0-3.8,3.22,4,4,0,0,0,0,.49c0,2.76,1.52,3.86,3.8,3.86s3.65-1.33,3.65-3.86Z" transform="translate(-37.37 -11.94)"/></g></g><path class="cls-5" d="M100.37,85.8h-51c-6.6,0-12-7.11-12-15.79V34.47a18.55,18.55,0,0,1,3.52-11.15c2.65-3.48,6-4.19,8.48-4.63a114.24,114.24,0,0,1,25.35-1.38c11.17.47,16.81.66,19.5,0,8.78-2.16,15.6-7.11,16.8-4.75,1,2-3.36,6-2.18,10.75.64,2.59,2.48,3.48,3.21,7.54a21,21,0,0,1,.32,3.62V70C112.37,78.69,107,85.8,100.37,85.8Z" transform="translate(-37.37 -11.94)"/><rect class="cls-6" x="8.29" y="19.77" width="55.26" height="47.37" rx="10"/><rect class="cls-7" x="10.66" y="73.74" width="57.24" height="4.74" rx="1.5"/><path class="cls-5" d="M67.51,51.51c0,3.79-2.09,7.06-6.55,7.06s-6.59-3.27-6.57-7.1,2-7.09,6.47-7.09S67.51,47.74,67.51,51.51Zm-4.69.06c0-2.06-.52-3.34-1.94-3.34s-1.74,1.36-1.74,3.06c0,2.09.5,3.4,1.86,3.4C62.62,54.69,62.82,53,62.82,51.57Z" transform="translate(-37.37 -11.94)"/><path class="cls-5" d="M87.45,57.88c0,.28,0,.28-.36.28H83.24c-.31,0-.35-.06-.35-.28V46.3c0-.16.06-.22.23-.28,1.37-.59,2.79-1.14,4-1.58.36-.14.36-.16.36.28Z" transform="translate(-37.37 -11.94)"/><rect class="cls-5" x="31.58" y="54.51" width="11.84" height="3.95" rx="1.25"/></svg>